<svg xmlns="http://www.w3.org/2000/svg" viewBox="0 0 106 80">
  <path fill="#F28F22" d="M1.3 14.7c-.1 2.1-.1 4.1.1 6.2 2 31.4 29.1 55.2 60.5 53.1C76 73.1 88.6 67.1 98 57.9 88.8 69.9 74.7 78 58.4 79c-30 2-56-20.7-58-50.8-.2-4.6.1-9.1.9-13.5z"/>
  <path fill="#1D4F27" d="M94.5 25.4s2.1 1 5.1 1.4c1.4.2 4.1.6 4 2 0 0-.8-.3-3.5.1-1.9.3-6.1.5-6.8-.2 0 0 1.5-1.1 1.2-3.3z"/>
  <path fill="#1D4F27" d="M81.3 35.7c.7-1.5 2.5-3.8 5.9-4.8 2.6-.8 8-2.1 6.5-5.9-1.1-2.7-7.9-3.6-12.2.9-6.4 6.8-11.8 11.4-17.2 12.9 0 0 4.5-.2 10.3-4.5 0 0 2.9-.3 4.5 1.9"/>
  <ellipse cx="90.6" cy="25.3" fill="#FFF" transform="rotate(175.675 90.546 25.323)" rx=".8" ry=".6"/>
  <path fill="#1D4F27" d="M26.1 15.3s29.1-2.9 31 7.2c.6 2.9.9 6.5 1.7 8.9 1.9 5.7 4.1 7.5 4.1 7.5s-4-6.7-3.3-15.2c.7-8.5-13.9-11.1-19.9-12.4C25.7 8.4 17.7 3 17 .9c0 0 0 4 3.6 7.1 0 0-2.8 1.2-3.7.1 0 0 1 2.7 6.1 4.9 0 0-2.7.2-4.2-.5"/>
  <path fill="#00703B" d="M95.5 30.9s2.4 1.1 5.7 1.5c1.6.2 4.6.6 4.5 2.2 0 0-.9-.4-3.9.1-2.1.3-6.8.6-7.5-.2-.1 0 1.5-1.1 1.2-3.6z"/>
  <path fill="#00703B" d="M94.6 30.5c-1.2-3-8.8-4-13.6 1-7.1 7.5-13.1 12.7-19.2 14.4 0 0 5-.3 11.5-5 0 0 3.3-.4 5 2.1 0 0-4.1 17.7-39.2 28.3 0 0 15.1-3.7 27.2-12 6.4-4.4 11.3-9.9 14.4-16.8.8-1.7 2.8-4.3 6.6-5.4 3-.9 9-2.4 7.3-6.6z"/>
  <ellipse cx="91.1" cy="30.8" fill="#FFF" transform="rotate(175.675 91.077 30.824)" rx=".9" ry=".7"/>
  <path fill="#00703B" d="M60.3 46s-4.4-7.4-3.7-16.9c.7-9.5-15.5-12.4-22.2-13.8C18.9 11.9 9.9 6 9.2 3.6c0 0 0 4.5 4 7.9 0 0-3.1-.4-4.1-1.7 0 0 1.1 4.8 6.8 7.3 0 0-3 .2-4.6-.6 0 0 6.7 11.5 20.5 15.2 0 0-1.7 0-2.6 1.3 0 0 3.9.2 4.9 4.1 1.4 5.8 5.6 18.6 12.4 17.3 0 0-9.4 1-8.7-23.2 0 0-15.3-2.2-18.4-11.6 0 0 32.4-3.2 34.6 8 .6 3.2 1 7.2 1.9 9.9 2 6.5 4.4 8.5 4.4 8.5z"/>
</svg>
